<?xml version="1.0" encoding="UTF-8"?>
<svg id="Layer_2" data-name="Layer 2" xmlns="http://www.w3.org/2000/svg" width="482.41" height="109.93" viewBox="0 0 482.41 109.93">
  <g id="Layer_1-2" data-name="Layer 1">
    <g>
      <g>
        <rect x="44.8" y="44.8" width="20.32" height="20.32" rx="10.16" ry="10.16" transform="translate(109.93 109.93) rotate(-180)" fill="#33063d"/>
        <rect x="44.8" y="0" width="20.32" height="20.32" rx="1.35" ry="1.35" fill="#33063d"/>
        <rect x="76.88" y="13.01" width="20.32" height="20.32" rx="1.35" ry="1.35" fill="#33063d"/>
        <rect x="12.73" y="13.01" width="20.32" height="20.32" rx="1.35" ry="1.35" fill="#33063d"/>
        <rect x="76.88" y="76.6" width="20.32" height="20.32" rx="1.35" ry="1.35" fill="#33063d"/>
        <rect x="44.8" y="89.61" width="20.32" height="20.32" rx="1.35" ry="1.35" fill="#33063d"/>
        <rect x="12.73" y="76.6" width="20.32" height="20.32" rx="1.35" ry="1.35" fill="#33063d"/>
        <rect x="89.61" y="44.8" width="20.32" height="20.32" rx="1.35" ry="1.35" transform="translate(154.73 -44.8) rotate(90)" fill="#33063d"/>
        <rect x="0" y="44.8" width="20.32" height="20.32" rx="1.35" ry="1.35" transform="translate(65.13 44.8) rotate(90)" fill="#33063d"/>
      </g>
      <g>
        <path d="M181.88,79.75v6h-31.3v-6h12.33v-28.82h-12.33v-6h18.89v34.83h12.41ZM161.22,32.76c0-2.8,2.24-4.96,5.04-4.96s4.96,2.16,4.96,4.96c0,2.96-2.16,5.04-4.96,5.04s-5.04-2.08-5.04-5.04Z" fill="#33063d"/>
        <path d="M191.08,85.76V29.72h34.42v6.4h-27.46v18.73h23.22v6.4h-23.22v24.5h-6.96Z" fill="#33063d"/>
        <path d="M233.67,64.06V29.72h6.97v34.26c0,10.65,4.72,15.85,13.29,15.85s13.45-5.12,13.45-15.85V29.72h6.97v34.34c0,14.65-7.29,22.18-20.41,22.18s-20.25-7.53-20.25-22.18Z" fill="#33063d"/>
        <path d="M313.73,85.76V29.72h6.96v49.64h25.14v6.4h-32.1Z" fill="#33063d"/>
        <path d="M391.3,79.75v6h-3.6c-5.44,0-7.29-2.32-7.37-6.32-2.56,3.68-6.64,6.8-13.69,6.8-8.97,0-15.05-4.48-15.05-11.93,0-8.17,5.68-12.73,16.41-12.73h12.01v-2.8c0-5.28-3.76-8.49-10.17-8.49-5.76,0-9.61,2.72-10.41,6.89h-6.56c.96-8.01,7.45-12.73,17.29-12.73,10.41,0,16.41,5.2,16.41,14.73v17.85c0,2.16.8,2.72,2.64,2.72h2.08ZM380.02,67.1h-12.65c-5.84,0-9.13,2.16-9.13,6.8,0,4,3.44,6.72,8.89,6.72,8.17,0,12.89-4.72,12.89-11.53v-2Z" fill="#33063d"/>
        <path d="M440.38,65.34c0,12.49-8.33,20.9-19.61,20.9-6.88,0-11.53-2.8-14.01-6.72l-.88,6.24h-5.68V29.72h6.56v21.78c2.72-3.76,7.13-7.05,14.01-7.05,11.29,0,19.61,7.61,19.61,20.9ZM433.65,65.34c0-8.89-5.44-15.05-13.53-15.05s-13.45,6.16-13.45,14.89,5.44,15.21,13.45,15.21,13.53-6.16,13.53-15.05Z" fill="#33063d"/>
        <path d="M448.06,72.31h6.72c.24,4.8,4.48,8.33,11.29,8.33,5.76,0,9.85-2.48,9.85-6.24,0-5.12-4.48-5.52-10.57-6.24-9.13-1.12-16.41-2.96-16.41-11.45,0-7.45,6.8-12.25,16.01-12.25s16.01,4.4,16.65,12.89h-6.72c-.48-4.16-4.32-7.29-9.93-7.29s-9.53,2.4-9.53,6.16c0,4.48,4.32,5.04,10.25,5.76,9.29,1.12,16.73,2.88,16.73,11.93,0,7.61-7.29,12.33-16.33,12.33-10.57,0-17.85-4.96-18.01-13.93Z" fill="#33063d"/>
      </g>
    </g>
  </g>
</svg>